# xmcd CD database file
#
# Track frame offsets:
#	150
#	19703
#	35665
#	50965
#	70730
#	92503
#	109593
#	128428
#	146690
#	159568
#	167833
#	184805
#	200615
#	230468
#	258278
#	284195
#
# Disc length: 4084 seconds
#
# Revision: 4
# Processed by: cddbd v1.5.2PL0 Copyright (c) Steve Scherf et al.
# Submitted via: CDex 1.51
#
DISCID=e80ff210
DTITLE=Buddy Guy and Junior Wells - Live In Montreux
DYEAR=1977
DGENRE=Blues
TTITLE0=One Room Country Shack
TTITLE1=The Things That I Used To Do
TTITLE2=Everyday I Have The Blues
TTITLE3=Driving Wheel
TTITLE4=Help Me
TTITLE5=Come On In This House
TTITLE6=Messin' With The Kid
TTITLE7=Somebody's Got To Go
TTITLE8=Everything Gonna Be Allright
TTITLE9=Got My Mojo Working
TTITLE10=Hide Away
TTITLE11=When I Feel Better
TTITLE12=I Don't Know
TTITLE13=So Many Roads, So Many Trains
TTITLE14=Blue Shadows Falling
TTITLE15=Hoochie Coochie Man
EXTD=YEAR: 1977
EXTT0=
EXTT1=
EXTT2=
EXTT3=
EXTT4=
EXTT5=
EXTT6=
EXTT7=
EXTT8=
EXTT9=
EXTT10=
EXTT11=
EXTT12=
EXTT13=
EXTT14=
EXTT15=
PLAYORDER=
